<?xml version="1.0" encoding="iso-8859-1"?>
<!-- Generator: Adobe Illustrator 19.0.0, SVG Export Plug-In . SVG Version: 6.00 Build 0)  -->
<svg version="1.1" id="Capa_1" xmlns="http://www.w3.org/2000/svg" xmlns:xlink="http://www.w3.org/1999/xlink" x="0px" y="0px"
	 viewBox="0 0 512 512" style="enable-background:new 0 0 512 512;" xml:space="preserve">
<linearGradient id="SVGID_1_" gradientUnits="userSpaceOnUse" x1="256" y1="514" x2="256" y2="2" gradientTransform="matrix(1 0 0 -1 0 514)">
	<stop  offset="0" style="stop-color:#2AF598"/>
	<stop  offset="1" style="stop-color:#009EFD"/>
</linearGradient>
<path style="fill:url(#SVGID_1_);" d="M419,340c0,11.046-8.954,20-20,20s-20-8.954-20-20s8.954-20,20-20S419,328.954,419,340z
	 M110,197c11.046,0,20-8.954,20-20s-8.954-20-20-20s-20,8.954-20,20S98.954,197,110,197z M168,136c11.046,0,20-8.954,20-20
	s-8.954-20-20-20s-20,8.954-20,20S156.954,136,168,136z M512,256c0,68.38-26.629,132.667-74.98,181.02
	C388.667,485.371,324.38,512,256,512s-132.667-26.629-181.02-74.98C26.629,388.667,0,324.38,0,256S26.629,123.333,74.98,74.98
	C123.333,26.629,187.62,0,256,0s132.667,26.629,181.02,74.98C485.371,123.333,512,187.62,512,256z M472,256
	c0-119.103-96.897-216-216-216S40,136.897,40,256s96.897,216,216,216S472,375.103,472,256z M395.5,114.5L293,141l23.858,23.858
	L155.852,325.864c-22.298-10.622-49.842-6.727-68.278,11.709l28.285,28.284c3.777-3.777,8.8-5.858,14.142-5.858
	s10.364,2.081,14.142,5.858c3.778,3.778,5.858,8.8,5.858,14.142s-2.08,10.365-5.858,14.142l28.285,28.284
	c18.436-18.436,22.331-45.98,11.709-68.278l161.006-161.006L369,217L395.5,114.5z M256,110c11.046,0,20-8.954,20-20s-8.954-20-20-20
	s-20,8.954-20,20S244.954,110,256,110z M110,256c0-11.046-8.954-20-20-20s-20,8.954-20,20c0,11.046,8.954,20,20,20
	S110,267.046,110,256z M422,236c-11.046,0-20,8.954-20,20c0,11.046,8.954,20,20,20s20-8.954,20-20C442,244.954,433.046,236,422,236z
	"/>
<g>
</g>
<g>
</g>
<g>
</g>
<g>
</g>
<g>
</g>
<g>
</g>
<g>
</g>
<g>
</g>
<g>
</g>
<g>
</g>
<g>
</g>
<g>
</g>
<g>
</g>
<g>
</g>
<g>
</g>
</svg>
